<svg width="460" height="319" fill="none" xmlns="http://www.w3.org/2000/svg"><path d="M6.155 86.284L.729 152.85l44.496 14.071-5.426 53.579 13.023 2.706 112.87-88.215 61.861 16.236-2.171 2.164-20.077 88.757 16.279-16.777 1.628-7.577 2.17-1.624 20.621 6.495-1.628 8.118 42.326 12.447 2.713-7.035 22.249 8.118-17.908 62.779 26.047 8.118v3.788l8.682-11.906 5.97 1.623 5.969-8.118-4.884-2.164 4.884-7.577 4.883 2.165 5.969-8.66-4.341-1.623 20.621-28.684 4.341 1.624 5.426-7.036-4.341-1.623 22.249-31.39 4.341 1.083 4.883-6.495-4.341-1.623 16.28-21.648 4.883 1.082 3.799-5.953-5.427-1.624.543-1.623 1.085-3.789 6.512 1.624 3.799-5.412-8.14-2.165 36.357-105.533-83.024-17.319-1.628 6.495L196.08 14.846l.542-5.953-41.783-8.66-43.954 24.896v5.412l-.543.54-54.807 31.931V57.6L6.155 86.284z" fill="#F2EC58" fill-opacity=".3"/></svg>