<svg width="658" height="545" fill="none" xmlns="http://www.w3.org/2000/svg"><path d="M329.62 22.896l61.319 19.483-12.481 122.311-38.528 32.472-44.496-19.483-40.698 35.156 139.459 61.718 173.103-174.265 2.713-9.2 22.791 6.494-2.171 8.118 41.241 12.988 2.171-8.118 23.333 8.118-36.899 127.723 11.395 4.871-6.512 9.741-8.139-3.247-1.086 6.495-4.341 4.87 5.427 2.165-7.055 9.742-5.426-1.624-1.628 3.247-32.559 40.59 8.683 3.247-8.683 12.989-7.054-2.165-45.582 63.862 5.969 2.706-10.31 15.153-7.054-3.788-45.04 60.614 7.055 4.871-10.311 16.236-7.597-3.788-14.108 18.4 6.511 3.789-11.395 16.777-6.512-3.789-11.395 15.695L23.027 314.061.237 162.525l67.83-39.507 2.713 7.577 145.428-86.05V38.05L283.496.707l46.124 14.612v7.577z" fill="#F2EC58" fill-opacity=".3"/></svg>