<svg width="14" height="14" fill="none" xmlns="http://www.w3.org/2000/svg"><path fill-rule="evenodd" clip-rule="evenodd" d="M3.577.678A.292.292 0 013.989.66l6.242 5.723a.837.837 0 01-.001 1.23h-.002l-6.24 5.727a.292.292 0 01-.394-.43l6.244-5.73a.252.252 0 00-.002-.368L3.595 1.09a.292.292 0 01-.018-.412z" fill="#fff"/><path d="M9.836 6.812c.11.102.105.275.002.368l-6.244 5.73a.292.292 0 00.395.43l6.24-5.727h0a.835.835 0 00.002-1.23L3.99.66a.292.292 0 10-.394.43l6.24 5.722zm0 0v0z" stroke="#fff" stroke-miterlimit="1" stroke-linecap="round" stroke-linejoin="round"/></svg>