<svg width="59" height="60" viewBox="0 0 59 60" fill="none" xmlns="http://www.w3.org/2000/svg">
<path d="M58.8405 35.2315C58.7108 35.0099 58.5114 34.8374 58.2734 34.7411L54.0419 33.009L58.4245 30.4282C58.9786 30.1039 59.1649 29.3919 58.8405 28.8378C58.7108 28.6162 58.5114 28.4437 58.2734 28.3474L54.0419 26.6153L58.4245 24.0346C58.8073 23.8043 59.0242 23.375 58.9825 22.9302C58.9489 22.4909 58.6698 22.1082 58.2618 21.9421L41.6033 15.1183L33.3962 11.6308C33.2629 11.5781 33.1209 11.5506 32.9777 11.5495L19.6091 6.10902C19.2808 5.97272 18.9082 5.99422 18.5977 6.16714L0.683762 16.2343C0.110366 16.523 -0.120388 17.222 0.168345 17.7954C0.299996 18.0569 0.525664 18.2592 0.800011 18.3616L5.12446 20.1519L0.683762 22.628C0.125042 22.9442 -0.0715635 23.6536 0.244633 24.2123C0.370327 24.4343 0.565334 24.6087 0.800011 24.7088L5.12446 26.499L0.707012 28.9751C0.116324 29.2268 -0.158314 29.9098 0.0933644 30.5003C0.22458 30.8082 0.482071 31.0445 0.800011 31.149L5.12446 32.9276L0.707012 35.4037C0.148292 35.7199 -0.0483138 36.4293 0.267883 36.988C0.393577 37.21 0.588584 37.3844 0.823261 37.4845L15.8542 43.8666C15.9091 43.9066 15.9676 43.9416 16.0286 43.9712L24.2474 47.4587L39.3597 53.8872C39.6997 54.0315 40.0882 54.0057 40.4059 53.8175L58.4245 43.2156C58.9786 42.8913 59.1649 42.1792 58.8405 41.6252C58.7108 41.4036 58.5114 41.2311 58.2734 41.1348L54.0419 39.4026L58.4245 36.8219C58.9786 36.4977 59.1647 35.7856 58.8405 35.2315ZM55.216 29.5914L39.7201 38.7169L25.8632 32.8347V28.9637L39.3481 34.6947C39.4915 34.7557 39.6457 34.7874 39.8015 34.7877C40.0101 34.7877 40.2149 34.7315 40.3943 34.625L51.5193 28.0802L55.216 29.5914ZM55.2625 23.1861L39.7201 32.3116L27.1303 26.9642L41.3127 17.4899L55.2625 23.1861ZM15.2846 41.1233L3.8806 36.2757L7.79818 34.0786L15.2962 37.2638L15.2846 41.1233ZM15.2846 34.7296L3.8806 29.882L7.79818 27.6617L15.2962 30.8469L15.2846 34.7296ZM15.2846 28.3359L3.8806 23.5L7.79818 21.3029L15.2962 24.4881L15.2846 28.3359ZM3.8806 17.1063L19.2487 8.46901L30.3969 13.0376L16.3541 22.4072L3.8806 17.1063ZM24.0498 26.2434C23.7293 26.4599 23.5377 26.8216 23.5383 27.2083V44.6456L17.6212 42.1346V24.3602L33.0242 14.0954L38.7552 16.4204L24.0498 26.2434ZM55.216 42.3788L39.7201 51.4927L25.8632 45.6105V41.751L39.3481 47.424C39.6881 47.5682 40.0765 47.5424 40.3943 47.3542L51.5193 40.8094L55.216 42.3788ZM39.7201 45.099L25.8632 39.2168V35.3573L39.3597 41.0884C39.6997 41.2327 40.0882 41.2068 40.4059 41.0186L51.531 34.4738L55.216 35.9851L39.7201 45.099Z" fill="white"/>
</svg>
