<svg width="50" height="50" viewBox="0 0 50 50" fill="none" xmlns="http://www.w3.org/2000/svg">
<path fill-rule="evenodd" clip-rule="evenodd" d="M45.5282 4.47178C45.935 4.87858 45.935 5.53813 45.5282 5.94492L5.94491 45.5283C5.53811 45.9351 4.87857 45.9351 4.47177 45.5283C4.06497 45.1215 4.06497 44.4619 4.47177 44.0551L44.0551 4.47178C44.4619 4.06499 45.1214 4.06499 45.5282 4.47178Z" fill="black"/>
<path fill-rule="evenodd" clip-rule="evenodd" d="M36.4583 27.0833C32.5432 27.0833 29.1667 30.6956 29.1667 35.4167C29.1667 40.1378 32.5432 43.75 36.4583 43.75C40.3735 43.75 43.75 40.1378 43.75 35.4167C43.75 30.6956 40.3735 27.0833 36.4583 27.0833ZM27.0833 35.4167C27.0833 29.7824 31.1687 25 36.4583 25C41.748 25 45.8333 29.7824 45.8333 35.4167C45.8333 41.0509 41.748 45.8333 36.4583 45.8333C31.1687 45.8333 27.0833 41.0509 27.0833 35.4167Z" fill="black"/>
<path fill-rule="evenodd" clip-rule="evenodd" d="M13.5417 6.25002C9.62655 6.25002 6.25001 9.86225 6.25001 14.5834C6.25001 19.3045 9.62655 22.9167 13.5417 22.9167C17.4568 22.9167 20.8333 19.3045 20.8333 14.5834C20.8333 9.86225 17.4568 6.25002 13.5417 6.25002ZM4.16667 14.5834C4.16667 8.94912 8.25205 4.16669 13.5417 4.16669C18.8313 4.16669 22.9167 8.94912 22.9167 14.5834C22.9167 20.2176 18.8313 25 13.5417 25C8.25205 25 4.16667 20.2176 4.16667 14.5834Z" fill="black"/>
</svg>
