<svg width="658" height="545" viewBox="0 0 658 545" fill="none" xmlns="http://www.w3.org/2000/svg">
<path d="M329.62 22.8962L390.939 42.3793L378.458 164.69L339.93 197.162L295.434 177.679L254.736 212.835L394.195 274.553L567.298 100.288L570.011 91.0872L592.802 97.5816L590.631 105.7L631.872 118.688L634.043 110.57L657.376 118.688L620.477 246.411L631.872 251.282L625.36 261.023L617.221 257.776L616.135 264.271L611.794 269.141L617.221 271.306L610.166 281.048L604.74 279.424L603.112 282.671L570.553 323.261L579.236 326.508L570.553 339.497L563.499 337.332L517.917 401.194L523.886 403.9L513.576 419.053L506.522 415.265L461.482 475.879L468.537 480.75L458.226 496.986L450.629 493.198L436.521 511.598L443.032 515.387L431.637 532.164L425.125 528.375L413.73 544.07L23.0273 314.061L0.236328 162.525L68.0666 123.018L70.7798 130.595L216.208 44.5441V38.0497L283.496 0.707031L329.62 15.3194V22.8962Z" fill="#F2EC58" fill-opacity="0.3"/>
</svg>
