<svg width="460" height="319" viewBox="0 0 460 319" fill="none" xmlns="http://www.w3.org/2000/svg">
<path d="M6.15494 86.2839L0.728516 152.851L45.2252 166.922L39.7988 220.501L52.8222 223.207L165.692 134.992L227.553 151.228L225.382 153.392L205.305 242.149L221.584 225.372L223.212 217.795L225.382 216.171L246.003 222.666L244.375 230.784L286.701 243.231L289.414 236.196L311.663 244.314L293.755 307.093L319.802 315.211V318.999L328.484 307.093L334.454 308.716L340.423 300.598L335.539 298.434L340.423 290.857L345.306 293.022L351.275 284.362L346.934 282.739L367.555 254.055L371.896 255.679L377.322 248.643L372.981 247.02L395.23 215.63L399.571 216.713L404.454 210.218L400.113 208.595L416.393 186.947L421.276 188.029L425.075 182.076L419.648 180.452L420.191 178.829L421.276 175.04L427.788 176.664L431.587 171.252L423.447 169.087L459.804 63.5536L376.78 46.2352L375.152 52.7296L196.08 14.8457L196.622 8.89257L154.839 0.233398L110.885 25.1285V30.5405L110.342 31.0817L55.5354 63.0124V57.6004L6.15494 86.2839Z" fill="#F2EC58" fill-opacity="0.3"/>
</svg>
