<svg width="14" height="14" viewBox="0 0 14 14" fill="none" xmlns="http://www.w3.org/2000/svg">
<path fill-rule="evenodd" clip-rule="evenodd" d="M3.57668 0.677816C3.68554 0.559082 3.87004 0.551076 3.98877 0.659934L10.2314 6.38331C10.5874 6.71264 10.5922 7.28473 10.2296 7.61233L10.2284 7.61338L3.98888 13.3398C3.8702 13.4487 3.6857 13.4408 3.57678 13.3221C3.46786 13.2035 3.47578 13.019 3.59445 12.91L9.83821 7.17978C9.94097 7.0873 9.94553 6.91387 9.83562 6.81185L3.59456 1.08991C3.47583 0.981049 3.46782 0.79655 3.57668 0.677816Z" fill="white"/>
<path d="M9.83562 6.81185C9.94553 6.91387 9.94097 7.0873 9.83821 7.17978L3.59445 12.91C3.47578 13.019 3.46786 13.2035 3.57678 13.3221C3.6857 13.4408 3.8702 13.4487 3.98888 13.3398L10.2284 7.61338L10.2296 7.61233C10.5922 7.28473 10.5874 6.71264 10.2314 6.38331L3.98877 0.659934C3.87004 0.551076 3.68554 0.559082 3.57668 0.677816C3.46782 0.79655 3.47583 0.981049 3.59456 1.08991L9.83562 6.81185ZM9.83562 6.81185V6.81185Z" stroke="white" stroke-miterlimit="1" stroke-linecap="round" stroke-linejoin="round"/>
</svg>
